<svg width="74" height="26" viewBox="0 0 74 26" fill="none" xmlns="http://www.w3.org/2000/svg">
<g clip-path="url(#clip0_926_7510)">
<path d="M11.1453 0C10.7293 0 10.3133 0.0173333 9.91468 0.0693333V14.6467C9.91468 15.9987 11.0067 17.0907 12.3587 17.0907H13.2947C14.6467 17.0907 15.7387 15.9987 15.7387 14.6467V8.49333L19.5867 5.37333V15.1493C19.5867 18.3387 17.004 20.9213 13.8147 20.9213H11.856C8.66668 20.9213 6.08401 18.3387 6.08401 15.1493V1.248C2.61734 3.068 0.242676 6.708 0.242676 10.92V15.08C0.242676 21.112 5.13068 26 11.1627 26H14.6467C20.6787 26 25.5667 21.112 25.5667 15.08V0H11.1453Z" fill="#2F3438"/>
<path d="M42.5706 13.0691C42.5706 17.3851 39.52 19.1877 35.4466 19.1877C31.3733 19.1877 28.6173 17.3504 28.6173 13.1037V6.34375H32.1186V12.5491C32.1186 15.4264 33.488 16.1371 35.4986 16.1371C37.6826 16.1371 39.26 15.5304 39.26 12.5664V6.34375H42.588V13.0691H42.5706Z" fill="#2F3438"/>
<path d="M48.8107 14.0224V18.7718H45.4653V6.34375H55.172C58.2573 6.34375 59.7827 7.81708 59.7827 10.1918C59.7827 12.5664 58.2227 14.0224 55.0507 14.0224H48.8107ZM48.8107 9.27308V10.9891H55.172C55.7787 10.9891 56.2293 10.7118 56.2293 10.0878C56.2293 9.53308 55.7787 9.27308 55.1547 9.27308H48.8107Z" fill="#2F3438"/>
<path d="M73.7707 9.15175H64.9133V11.4571H72.8173V14.4211H64.9133V18.7891H61.5333V6.34375H73.7707V9.15175Z" fill="#2F3438"/>
</g>
<defs>
<clipPath id="clip0_926_7510">
<rect width="73.7707" height="26" fill="white"/>
</clipPath>
</defs>
</svg>
