<svg width="136" height="26" viewBox="0 0 136 26" fill="none" xmlns="http://www.w3.org/2000/svg">
<g clip-path="url(#clip0_2238_4844)">
<path d="M11.1453 0C10.7293 0 10.3133 0.0173333 9.91468 0.0693333V14.6467C9.91468 15.9987 11.0067 17.0907 12.3587 17.0907H13.2947C14.6467 17.0907 15.7387 15.9987 15.7387 14.6467V8.49333L19.5867 5.37333V15.1493C19.5867 18.3387 17.004 20.9213 13.8147 20.9213H11.856C8.66668 20.9213 6.08401 18.3387 6.08401 15.1493V1.248C2.61734 3.068 0.242676 6.708 0.242676 10.92V15.08C0.242676 21.112 5.13068 26 11.1627 26H14.6467C20.6787 26 25.5667 21.112 25.5667 15.08V0H11.1453Z" fill="white"/>
<path d="M42.5706 13.0693C42.5706 17.3853 39.52 19.188 35.4466 19.188C31.3733 19.188 28.6173 17.3507 28.6173 13.104V6.344H32.1186V12.5493C32.1186 15.4267 33.488 16.1373 35.4986 16.1373C37.6826 16.1373 39.26 15.5307 39.26 12.5667V6.344H42.588V13.0693H42.5706Z" fill="white"/>
<path d="M48.8107 14.0227V18.772H45.4653V6.344H55.172C58.2573 6.344 59.7827 7.81734 59.7827 10.192C59.7827 12.5667 58.2227 14.0227 55.0507 14.0227H48.8107ZM48.8107 9.27334V10.9893H55.172C55.7787 10.9893 56.2293 10.712 56.2293 10.088C56.2293 9.53334 55.7787 9.27334 55.1547 9.27334H48.8107Z" fill="white"/>
<path d="M73.7707 9.152H64.9133V11.4573H72.8173V14.4213H64.9133V18.7893H61.5333V6.344H73.7707V9.152Z" fill="white"/>
</g>
<defs>
<clipPath id="clip0_2238_4844">
<rect width="73.7707" height="26" fill="white"/>
</clipPath>
</defs>
</svg>
